# xmcd CD database file
#
# Track frame offsets:
#	150
#	27783
#	56200
#	74989
#	122486
#	164872
#	189937
#	210234
#
# Disc length: 3335 seconds
#
# Revision: 0
# Processed by: cddbd v1.5.2PL0 Copyright (c) Steve Scherf et al.
# Submitted via: CDex 1.51
#
DISCID=750d0508
DTITLE=松尾泰伸 - rlung purple
DYEAR=2012
DGENRE=New Age
TTITLE0=宙 (The universe)
TTITLE1=このはなさくやひめ (konohanasakuya-Princess)
TTITLE2=TAKAHARA
TTITLE3=FUJI
TTITLE4=3・11 (three・eleven)
TTITLE5=アクアリウス (Aquarius)
TTITLE6=Revival
TTITLE7=m＊五色の虹 (m＊Rainbow of the five colors)
EXTD=YEAR: 2012
EXTT0=
EXTT1=
EXTT2=
EXTT3=
EXTT4=
EXTT5=
EXTT6=
EXTT7=
PLAYORDER=
